<?xml version="1.0" standalone="no"?>
<!DOCTYPE svg PUBLIC "-//W3C//DTD SVG 20010904//EN"
 "http://www.w3.org/TR/2001/REC-SVG-20010904/DTD/svg10.dtd">
<svg version="1.0" xmlns="http://www.w3.org/2000/svg"
 width="700.000000pt" height="700.000000pt" viewBox="0 0 700.000000 700.000000"
 preserveAspectRatio="xMidYMid meet">
<metadata>
Created by potrace 1.14, written by Peter Selinger 2001-2017
</metadata>
<g transform="translate(0.000000,700.000000) scale(0.100000,-0.100000)"
fill="#000000" stroke="none">
<path d="M5923 6403 c-213 -24 -421 -88 -611 -189 -174 -92 -321 -202 -451
-339 -167 -178 -241 -292 -371 -580 -21 -46 -75 -241 -86 -311 -3 -21 -7 -41
-9 -44 -14 -23 -19 -340 -19 -1255 l-1 -1060 582 0 583 0 0 -40 c0 -22 2 -481
3 -1020 l2 -980 290 0 290 0 0 2913 c0 1601 -2 2913 -5 2913 -22 6 -103 3
-197 -8z m-382 -1958 c0 -675 -2 -1229 -4 -1231 -6 -7 -568 -6 -574 0 -8 7 -6
1500 2 1576 32 324 220 642 494 835 42 29 77 52 79 50 1 -1 3 -555 3 -1230z"/>
<path d="M877 6115 c-7 -21 0 -1844 7 -1905 38 -327 186 -632 420 -866 182
-182 387 -301 644 -374 l93 -26 2 -1180 2 -1179 275 -1 c151 -1 282 0 290 2
13 3 15 140 14 1171 0 643 2 1173 4 1180 2 6 18 14 36 17 63 12 221 67 296
104 430 209 724 596 809 1067 19 105 20 156 21 1055 l0 945 -287 0 -288 0 -3
-1021 -2 -1020 -290 0 c-254 0 -290 2 -291 16 -1 8 -2 467 -3 1020 l-1 1005
-292 0 -291 0 -1 -990 c0 -544 0 -1004 -1 -1020 l0 -31 -284 1 c-156 0 -287 3
-291 6 -3 4 -7 463 -8 1020 l-2 1014 -287 0 c-184 0 -289 -4 -291 -10z"/>
</g>
</svg>
