<svg version="1" xmlns="http://www.w3.org/2000/svg" width="933.333" height="933.333" viewBox="0 0 700.000000 700.000000"><path d="M25.3 1.4C15.1 4.6 7.7 11.1 3.1 21L.5 26.5v290c0 159.5.3 292 .7 294.5 2.5 15.5 7.3 27.7 16.3 41.6 12.7 19.6 33.9 35.7 56 42.5 7 2.1 8.1 2.4 17 3.9 6.2 1.1 518.8.8 523-.3 1.7-.4 4.8-1.3 7-1.8 18.1-4.6 35.3-14.5 48.5-27.9 9.1-9.2 10.1-10.5 14.9-18.3 6.2-10.2 10.5-20.5 13.8-32.7 1.5-6 1.7-19.3 2-172.3l.4-165.7H560V155.5v-125c-.4-3.1-3.7-11.5-6.1-14.9-3.8-5.7-8.1-9.3-14.9-12.5L533.5.5l-252-.2C75.3.2 28.7.4 25.3 1.4zM490 350v280l-196.8-.2-196.7-.3-6.7-3.3c-7.7-3.8-13-9.2-16.7-17.1l-2.6-5.6-.3-266.8L70 70h420v280zm139.8 126.7l-.3 126.8-2.6 5.5c-3.5 7.6-10.2 14.3-17.4 17.7-5.2 2.4-7.1 2.8-15 2.7-7.7 0-9.8-.4-14.1-2.7-10.6-5.4-17.4-14-19.3-24.2-.8-4-1.1-44.9-1.1-129.2V350h70l-.2 126.7z"/><path d="M140 245v105h210V140H140v105zm140 0v35h-70v-70h70v35zM140 420v35h280v-70H140v35zM140 525v35h280v-70H140v35z"/></svg>